<svg width="64" height="64" viewBox="0 0 64 64" fill="none" xmlns="http://www.w3.org/2000/svg">
<g filter="url(#filter0_d_312_24)">
<rect x="15" y="15" width="34" height="34" rx="17" fill="white"/>
<path d="M28 32C28 32.2652 28.1054 32.5196 28.2929 32.7071C28.4804 32.8946 28.7348 33 29 33C29.2652 33 29.5196 32.8946 29.7071 32.7071C29.8946 32.5196 30 32.2652 30 32C30 31.7348 29.8946 31.4804 29.7071 31.2929C29.5196 31.1054 29.2652 31 29 31C28.7348 31 28.4804 31.1054 28.2929 31.2929C28.1054 31.4804 28 31.7348 28 32Z" stroke="#9F9F9F" stroke-width="2" stroke-linecap="round" stroke-linejoin="round"/>
<path d="M34 32C34 32.2652 34.1054 32.5196 34.2929 32.7071C34.4804 32.8946 34.7348 33 35 33C35.2652 33 35.5196 32.8946 35.7071 32.7071C35.8946 32.5196 36 32.2652 36 32C36 31.7348 35.8946 31.4804 35.7071 31.2929C35.5196 31.1054 35.2652 31 35 31C34.7348 31 34.4804 31.1054 34.2929 31.2929C34.1054 31.4804 34 31.7348 34 32Z" stroke="#9F9F9F" stroke-width="2" stroke-linecap="round" stroke-linejoin="round"/>
<path d="M35.4999 37C35.4999 38 36.9999 40 37.4999 40C38.9999 40 40.3329 38.333 40.9999 37C41.6669 35.333 41.4999 31.167 39.4999 25.5C38.0429 24.485 36.4999 24.16 34.9999 24L34.0279 25.923C32.6869 25.6915 31.316 25.6915 29.9749 25.923L28.9999 24C27.4999 24.16 25.9569 24.485 24.4999 25.5C22.4999 31.167 22.3329 35.333 22.9999 37C23.6669 38.333 24.9999 40 26.4999 40C26.9999 40 28.4999 38 28.4999 37" stroke="#9F9F9F" stroke-width="2" stroke-linecap="round" stroke-linejoin="round"/>
<path d="M27 36.5C30.5 37.5 33.5 37.5 37 36.5" stroke="#9F9F9F" stroke-width="2" stroke-linecap="round" stroke-linejoin="round"/>
</g>
<defs>
<filter id="filter0_d_312_24" x="0" y="0" width="64" height="64" filterUnits="userSpaceOnUse" color-interpolation-filters="sRGB">
<feFlood flood-opacity="0" result="BackgroundImageFix"/>
<feColorMatrix in="SourceAlpha" type="matrix" values="0 0 0 0 0 0 0 0 0 0 0 0 0 0 0 0 0 0 127 0" result="hardAlpha"/>
<feOffset/>
<feGaussianBlur stdDeviation="7.5"/>
<feComposite in2="hardAlpha" operator="out"/>
<feColorMatrix type="matrix" values="0 0 0 0 0 0 0 0 0 0 0 0 0 0 0 0 0 0 0.25 0"/>
<feBlend mode="normal" in2="BackgroundImageFix" result="effect1_dropShadow_312_24"/>
<feBlend mode="normal" in="SourceGraphic" in2="effect1_dropShadow_312_24" result="shape"/>
</filter>
</defs>
</svg>
