<?xml version="1.0" encoding="UTF-8"?>
<!DOCTYPE svg PUBLIC "-//W3C//DTD SVG 1.1//EN" "http://www.w3.org/Graphics/SVG/1.1/DTD/svg11.dtd">
<!-- Creator: CorelDRAW -->
<svg xmlns="http://www.w3.org/2000/svg" xml:space="preserve" width="1.70666in" height="1.70666in" version="1.1" style="shape-rendering:geometricPrecision; text-rendering:geometricPrecision; image-rendering:optimizeQuality; fill-rule:evenodd; clip-rule:evenodd"
viewBox="0 0 1707 1707"
 xmlns:xlink="http://www.w3.org/1999/xlink">
 <defs>
  <style type="text/css">
   <![CDATA[
    .fil0 {fill:url(#id0)}
    .fil1 {fill:url(#id1)}
   ]]>
  </style>
  <linearGradient id="id0" gradientUnits="userSpaceOnUse" x1="160.961" y1="863.555" x2="1545.8" y2="863.555">
   <stop offset="0" style="stop-opacity:1; stop-color:#FF9911"/>
   <stop offset="1" style="stop-opacity:1; stop-color:#FF6600"/>
  </linearGradient>
  <linearGradient id="id1" gradientUnits="userSpaceOnUse" x1="512.52" y1="1285.09" x2="1184.08" y2="1285.09">
   <stop offset="0" style="stop-opacity:1; stop-color:yellow"/>
   <stop offset="1" style="stop-opacity:1; stop-color:#FFCC00"/>
  </linearGradient>
 </defs>
 <g id="Layer_x0020_1">
  <metadata id="CorelCorpID_0Corel-Layer"/>
  <path class="fil0" d="M1184 923c59,-220 -190,-521 -192,-525 -2,-3 -5,-6 -6,-11 -40,-151 -17,-287 8,-369 -199,130 -322,287 -358,455 -30,140 12,242 12,243 5,12 2,25 -7,33 -10,8 -23,9 -34,3 -96,-55 -210,-192 -261,-257 -184,332 -231,613 -141,836 60,148 172,243 255,296 33,20 64,37 90,49 0,0 94,39 89,33 -109,-156 -149,-323 -115,-482 32,-150 131,-203 279,-300 14,98 55,153 147,208 24,19 340,284 197,509 0,1 0,1 0,2 -3,5 -7,9 -11,14l101 -85c234,-193 336,-440 303,-735 -14,-122 -49,-231 -82,-309 -8,80 -38,164 -90,248 -62,103 -134,169 -137,172 -9,9 -23,10 -34,4 -11,-7 -17,-20 -13,-32z"/>
  <path class="fil1" d="M1147 1644c143,-225 -173,-490 -197,-509 -92,-55 -133,-192 -147,-289 -148,97 -247,231 -279,381 -34,159 6,326 115,482 32,4 124,15 223,15l4 0c152,0 251,-28 281,-78 0,-1 0,-1 0,-2z"/>
 </g>
</svg>
