<svg width="64" height="64" viewBox="0 0 64 64" fill="none" xmlns="http://www.w3.org/2000/svg">
<g filter="url(#filter0_d_312_30)">
<rect x="15" y="15" width="34" height="34" rx="17" fill="white"/>
<g clip-path="url(#clip0_312_30)">
<path d="M36.156 29.3119L37.3255 30.8041C37.4594 30.9741 37.5757 31.1063 37.6281 31.1882C37.9772 31.5659 38.175 32.0759 38.175 32.6048C38.1401 33.2282 37.7677 33.6563 37.4186 34.1159L36.5982 35.1548L36.1735 35.6963C36.156 35.7152 36.1502 35.7404 36.1444 35.7656C36.1386 35.7908 36.1444 35.816 36.156 35.8348C36.1677 35.86 36.1793 35.8789 36.2026 35.8915C36.22 35.9041 36.2433 35.9104 36.2666 35.9104H40.5373C41.1889 35.9104 42.0093 36.5023 41.9628 37.4026C41.9628 37.8119 41.8057 38.2023 41.538 38.4919C41.2646 38.7815 40.898 38.9452 40.514 38.9452H33.8229C33.3807 38.9452 32.1996 38.9956 31.8679 37.9063C31.7981 37.6797 31.7865 37.4341 31.8388 37.2011C31.9377 36.8548 32.089 36.5274 32.2868 36.2378C32.6243 35.6963 32.985 35.1611 33.3458 34.6385C33.8113 33.9522 34.2825 33.2911 34.7538 32.5922C34.7713 32.5671 34.7771 32.5419 34.7771 32.5104C34.7771 32.4789 34.7655 32.4537 34.7538 32.4285L33.0549 30.2689C33.0432 30.2563 33.0316 30.2437 33.0141 30.2311C32.9967 30.2248 32.9792 30.2185 32.9618 30.2185C32.9443 30.2185 32.9269 30.2248 32.9094 30.2311C32.892 30.2374 32.8803 30.25 32.8687 30.2689C32.4148 30.9237 30.4192 33.8263 29.9944 34.4182C29.5697 35.0037 28.5224 35.0415 27.9405 34.4182L25.2815 31.5722C25.2641 31.5533 25.2408 31.5408 25.2175 31.5345C25.1943 31.5282 25.171 31.5345 25.1477 31.5408C25.1245 31.5533 25.107 31.5659 25.0954 31.5911C25.0837 31.61 25.0721 31.6352 25.0779 31.6604V37.1319C25.0837 37.5223 24.979 37.9 24.7695 38.2211C24.5601 38.5423 24.2692 38.7815 23.9259 38.9137C23.7048 38.9956 23.472 39.0208 23.2451 38.983C23.0182 38.9452 22.7971 38.8571 22.6109 38.7123C22.4189 38.5674 22.2676 38.3786 22.1629 38.1582C22.0582 37.9378 22 37.6923 22 37.4467V27.6056C22.0175 27.253 22.1338 26.913 22.3433 26.6296C22.5527 26.3526 22.832 26.1511 23.152 26.0567C23.4255 25.9811 23.7164 25.9811 23.9899 26.0567C24.2633 26.1385 24.5135 26.2896 24.7172 26.51L28.8075 30.8733C28.8191 30.8859 28.8366 30.8985 28.8482 30.9048C28.8657 30.9111 28.8831 30.9111 28.9006 30.9111C28.918 30.9111 28.9355 30.9048 28.9471 30.8922C28.9646 30.8859 28.9762 30.8733 28.9878 30.8545L31.8912 26.5667C32.025 26.3904 32.1938 26.2519 32.3858 26.1574C32.5778 26.063 32.7872 26.0063 32.9967 26.0063H40.5489C40.7584 26.0063 40.962 26.0567 41.1482 26.1448C41.3344 26.2393 41.5031 26.3715 41.6428 26.5352C41.7766 26.6989 41.8813 26.8941 41.9395 27.1082C41.9977 27.3222 42.0151 27.5426 41.986 27.763C41.9337 28.1407 41.7533 28.487 41.4798 28.7326C41.2064 28.9782 40.8573 29.1167 40.4965 29.1104H36.2666C36.2433 29.1104 36.2259 29.1167 36.2084 29.1293C36.191 29.1419 36.1735 29.1607 36.1677 29.1796C36.156 29.1985 36.156 29.2237 36.156 29.2426C36.1386 29.2678 36.1444 29.293 36.156 29.3119Z" fill="#9F9F9F"/>
</g>
</g>
<defs>
<filter id="filter0_d_312_30" x="0" y="0" width="64" height="64" filterUnits="userSpaceOnUse" color-interpolation-filters="sRGB">
<feFlood flood-opacity="0" result="BackgroundImageFix"/>
<feColorMatrix in="SourceAlpha" type="matrix" values="0 0 0 0 0 0 0 0 0 0 0 0 0 0 0 0 0 0 127 0" result="hardAlpha"/>
<feOffset/>
<feGaussianBlur stdDeviation="7.5"/>
<feComposite in2="hardAlpha" operator="out"/>
<feColorMatrix type="matrix" values="0 0 0 0 0 0 0 0 0 0 0 0 0 0 0 0 0 0 0.25 0"/>
<feBlend mode="normal" in2="BackgroundImageFix" result="effect1_dropShadow_312_30"/>
<feBlend mode="normal" in="SourceGraphic" in2="effect1_dropShadow_312_30" result="shape"/>
</filter>
<clipPath id="clip0_312_30">
<rect width="20" height="13" fill="white" transform="translate(22 26)"/>
</clipPath>
</defs>
</svg>
